<svg width="250" height="250" viewBox="0 0 250 250" fill="none" xmlns="http://www.w3.org/2000/svg">
<rect width="250" height="250" fill="url(#paint0_linear_21_185)"/>
<path d="M78.7193 110.944C79.1833 110.944 79.5513 111.08 79.8232 111.352C80.0953 111.624 80.2313 111.976 80.2313 112.408V115H57.2873V113.536C57.2873 113.232 57.3513 112.92 57.4793 112.6C57.6073 112.28 57.8073 111.984 58.0793 111.712L69.0953 100.648C70.0073 99.72 70.8393 98.832 71.5913 97.984C72.3433 97.12 72.9833 96.256 73.5113 95.392C74.0393 94.528 74.4473 93.656 74.7353 92.776C75.0233 91.88 75.1673 90.928 75.1673 89.92C75.1673 88.912 75.0073 88.032 74.6873 87.28C74.3673 86.512 73.9273 85.88 73.3673 85.384C72.8233 84.888 72.1753 84.52 71.4233 84.28C70.6713 84.024 69.8633 83.896 68.9993 83.896C68.1193 83.896 67.3113 84.024 66.5753 84.28C65.8393 84.536 65.1833 84.896 64.6073 85.36C64.0473 85.808 63.5753 86.344 63.1913 86.968C62.8073 87.592 62.5353 88.28 62.3753 89.032C62.1833 89.592 61.9193 89.968 61.5833 90.16C61.2633 90.336 60.8073 90.384 60.2153 90.304L57.9833 89.92C58.2073 88.352 58.6393 86.968 59.2793 85.768C59.9353 84.552 60.7513 83.536 61.7273 82.72C62.7193 81.904 63.8473 81.288 65.1113 80.872C66.3753 80.44 67.7433 80.224 69.2153 80.224C70.6713 80.224 72.0313 80.44 73.2953 80.872C74.5593 81.304 75.6553 81.936 76.5833 82.768C77.5113 83.584 78.2393 84.584 78.7673 85.768C79.2953 86.952 79.5593 88.296 79.5593 89.8C79.5593 91.08 79.3673 92.272 78.9833 93.376C78.5993 94.464 78.0793 95.504 77.4233 96.496C76.7673 97.488 76.0073 98.456 75.1433 99.4C74.2953 100.344 73.3913 101.296 72.4313 102.256L63.3593 111.52C63.9993 111.344 64.6473 111.208 65.3033 111.112C65.9593 111 66.5913 110.944 67.1993 110.944H78.7193ZM85.539 112.36C85.539 111.944 85.611 111.552 85.755 111.184C85.915 110.816 86.123 110.496 86.379 110.224C86.651 109.952 86.971 109.736 87.339 109.576C87.707 109.416 88.099 109.336 88.515 109.336C88.931 109.336 89.323 109.416 89.691 109.576C90.059 109.736 90.379 109.952 90.651 110.224C90.923 110.496 91.139 110.816 91.299 111.184C91.459 111.552 91.539 111.944 91.539 112.36C91.539 112.792 91.459 113.192 91.299 113.56C91.139 113.912 90.923 114.224 90.651 114.496C90.379 114.768 90.059 114.976 89.691 115.12C89.323 115.28 88.931 115.36 88.515 115.36C88.099 115.36 87.707 115.28 87.339 115.12C86.971 114.976 86.651 114.768 86.379 114.496C86.123 114.224 85.915 113.912 85.755 113.56C85.611 113.192 85.539 112.792 85.539 112.36ZM108.091 111.832C109.243 111.832 110.283 111.648 111.211 111.28C112.155 110.912 112.955 110.4 113.611 109.744C114.283 109.088 114.795 108.312 115.147 107.416C115.515 106.52 115.699 105.544 115.699 104.488C115.699 103.368 115.523 102.36 115.171 101.464C114.819 100.552 114.315 99.784 113.659 99.16C113.019 98.52 112.251 98.032 111.355 97.696C110.459 97.36 109.475 97.192 108.403 97.192C107.251 97.192 106.211 97.392 105.283 97.792C104.355 98.176 103.563 98.704 102.907 99.376C102.267 100.032 101.771 100.8 101.419 101.68C101.083 102.544 100.915 103.448 100.915 104.392C100.915 105.496 101.075 106.504 101.395 107.416C101.715 108.328 102.179 109.112 102.787 109.768C103.411 110.424 104.163 110.936 105.043 111.304C105.939 111.656 106.955 111.832 108.091 111.832ZM105.595 93.496C105.291 93.88 104.995 94.256 104.707 94.624C104.435 94.976 104.171 95.328 103.915 95.68C104.731 95.12 105.627 94.688 106.603 94.384C107.579 94.08 108.643 93.928 109.795 93.928C111.187 93.928 112.499 94.16 113.731 94.624C114.963 95.072 116.035 95.736 116.947 96.616C117.875 97.48 118.611 98.552 119.155 99.832C119.699 101.096 119.971 102.544 119.971 104.176C119.971 105.76 119.683 107.232 119.107 108.592C118.531 109.952 117.723 111.136 116.683 112.144C115.659 113.152 114.419 113.944 112.963 114.52C111.523 115.096 109.931 115.384 108.187 115.384C106.459 115.384 104.891 115.112 103.483 114.568C102.075 114.008 100.875 113.224 99.8828 112.216C98.9068 111.192 98.1468 109.96 97.6028 108.52C97.0748 107.064 96.8108 105.44 96.8108 103.648C96.8108 102.144 97.1388 100.544 97.7948 98.848C98.4668 97.136 99.5308 95.312 100.987 93.376L109.723 81.64C109.947 81.352 110.251 81.112 110.635 80.92C111.035 80.712 111.491 80.608 112.003 80.608H115.795L105.595 93.496ZM131.087 95.68H132.839C133.447 95.68 133.935 95.608 134.303 95.464C134.671 95.304 135.007 95.04 135.311 94.672L146.759 81.712C147.079 81.296 147.415 81.008 147.767 80.848C148.119 80.688 148.551 80.608 149.062 80.608H152.999L139.895 95.416C139.575 95.8 139.263 96.12 138.959 96.376C138.671 96.616 138.359 96.816 138.023 96.976C138.455 97.12 138.847 97.336 139.199 97.624C139.551 97.896 139.895 98.256 140.231 98.704L153.911 115H149.879C149.575 115 149.311 114.984 149.087 114.952C148.879 114.904 148.695 114.84 148.535 114.76C148.375 114.664 148.231 114.56 148.103 114.448C147.991 114.32 147.879 114.176 147.767 114.016L135.911 100.36C135.591 99.96 135.247 99.68 134.879 99.52C134.511 99.344 133.951 99.256 133.199 99.256H131.087V115H126.455V80.608H131.087V95.68ZM191.565 100.504H181.773V110.824H178.293V100.504H168.549V97.264H178.293V87.016H181.773V97.264H191.565V100.504Z" fill="#303030"/>
<path d="M67.3008 153.93V155.008C67.3008 156.289 67.1406 157.438 66.8203 158.453C66.5 159.469 66.0391 160.332 65.4375 161.043C64.8359 161.754 64.1133 162.297 63.2695 162.672C62.4336 163.047 61.4961 163.234 60.457 163.234C59.4492 163.234 58.5234 163.047 57.6797 162.672C56.8438 162.297 56.1172 161.754 55.5 161.043C54.8906 160.332 54.418 159.469 54.082 158.453C53.7461 157.438 53.5781 156.289 53.5781 155.008V153.93C53.5781 152.648 53.7422 151.504 54.0703 150.496C54.4062 149.48 54.8789 148.617 55.4883 147.906C56.0977 147.188 56.8203 146.641 57.6562 146.266C58.5 145.891 59.4258 145.703 60.4336 145.703C61.4727 145.703 62.4102 145.891 63.2461 146.266C64.0898 146.641 64.8125 147.188 65.4141 147.906C66.0234 148.617 66.4883 149.48 66.8086 150.496C67.1367 151.504 67.3008 152.648 67.3008 153.93ZM65.0625 155.008V153.906C65.0625 152.891 64.957 151.992 64.7461 151.211C64.543 150.43 64.2422 149.773 63.8438 149.242C63.4453 148.711 62.957 148.309 62.3789 148.035C61.8086 147.762 61.1602 147.625 60.4336 147.625C59.7305 147.625 59.0938 147.762 58.5234 148.035C57.9609 148.309 57.4766 148.711 57.0703 149.242C56.6719 149.773 56.3633 150.43 56.1445 151.211C55.9258 151.992 55.8164 152.891 55.8164 153.906V155.008C55.8164 156.031 55.9258 156.938 56.1445 157.727C56.3633 158.508 56.6758 159.168 57.082 159.707C57.4961 160.238 57.9844 160.641 58.5469 160.914C59.1172 161.188 59.7539 161.324 60.457 161.324C61.1914 161.324 61.8438 161.188 62.4141 160.914C62.9844 160.641 63.4648 160.238 63.8555 159.707C64.2539 159.168 64.5547 158.508 64.7578 157.727C64.9609 156.938 65.0625 156.031 65.0625 155.008ZM72.5273 153.027V163H70.3594V150.32H72.4102L72.5273 153.027ZM72.0117 156.18L71.1094 156.145C71.1172 155.277 71.2461 154.477 71.4961 153.742C71.7461 153 72.0977 152.355 72.5508 151.809C73.0039 151.262 73.543 150.84 74.168 150.543C74.8008 150.238 75.5 150.086 76.2656 150.086C76.8906 150.086 77.4531 150.172 77.9531 150.344C78.4531 150.508 78.8789 150.773 79.2305 151.141C79.5898 151.508 79.8633 151.984 80.0508 152.57C80.2383 153.148 80.332 153.855 80.332 154.691V163H78.1523V154.668C78.1523 154.004 78.0547 153.473 77.8594 153.074C77.6641 152.668 77.3789 152.375 77.0039 152.195C76.6289 152.008 76.168 151.914 75.6211 151.914C75.082 151.914 74.5898 152.027 74.1445 152.254C73.707 152.48 73.3281 152.793 73.0078 153.191C72.6953 153.59 72.4492 154.047 72.2695 154.562C72.0977 155.07 72.0117 155.609 72.0117 156.18ZM85.9805 145V163H83.8008V145H85.9805ZM91.8164 150.32V163H89.6367V150.32H91.8164ZM89.4727 146.957C89.4727 146.605 89.5781 146.309 89.7891 146.066C90.0078 145.824 90.3281 145.703 90.75 145.703C91.1641 145.703 91.4805 145.824 91.6992 146.066C91.9258 146.309 92.0391 146.605 92.0391 146.957C92.0391 147.293 91.9258 147.582 91.6992 147.824C91.4805 148.059 91.1641 148.176 90.75 148.176C90.3281 148.176 90.0078 148.059 89.7891 147.824C89.5781 147.582 89.4727 147.293 89.4727 146.957ZM97.4648 153.027V163H95.2969V150.32H97.3477L97.4648 153.027ZM96.9492 156.18L96.0469 156.145C96.0547 155.277 96.1836 154.477 96.4336 153.742C96.6836 153 97.0352 152.355 97.4883 151.809C97.9414 151.262 98.4805 150.84 99.1055 150.543C99.7383 150.238 100.438 150.086 101.203 150.086C101.828 150.086 102.391 150.172 102.891 150.344C103.391 150.508 103.816 150.773 104.168 151.141C104.527 151.508 104.801 151.984 104.988 152.57C105.176 153.148 105.27 153.855 105.27 154.691V163H103.09V154.668C103.09 154.004 102.992 153.473 102.797 153.074C102.602 152.668 102.316 152.375 101.941 152.195C101.566 152.008 101.105 151.914 100.559 151.914C100.02 151.914 99.5273 152.027 99.082 152.254C98.6445 152.48 98.2656 152.793 97.9453 153.191C97.6328 153.59 97.3867 154.047 97.207 154.562C97.0352 155.07 96.9492 155.609 96.9492 156.18ZM113.824 163.234C112.941 163.234 112.141 163.086 111.422 162.789C110.711 162.484 110.098 162.059 109.582 161.512C109.074 160.965 108.684 160.316 108.41 159.566C108.137 158.816 108 157.996 108 157.105V156.613C108 155.582 108.152 154.664 108.457 153.859C108.762 153.047 109.176 152.359 109.699 151.797C110.223 151.234 110.816 150.809 111.48 150.52C112.145 150.23 112.832 150.086 113.543 150.086C114.449 150.086 115.23 150.242 115.887 150.555C116.551 150.867 117.094 151.305 117.516 151.867C117.938 152.422 118.25 153.078 118.453 153.836C118.656 154.586 118.758 155.406 118.758 156.297V157.27H109.289V155.5H116.59V155.336C116.559 154.773 116.441 154.227 116.238 153.695C116.043 153.164 115.73 152.727 115.301 152.383C114.871 152.039 114.285 151.867 113.543 151.867C113.051 151.867 112.598 151.973 112.184 152.184C111.77 152.387 111.414 152.691 111.117 153.098C110.82 153.504 110.59 154 110.426 154.586C110.262 155.172 110.18 155.848 110.18 156.613V157.105C110.18 157.707 110.262 158.273 110.426 158.805C110.598 159.328 110.844 159.789 111.164 160.188C111.492 160.586 111.887 160.898 112.348 161.125C112.816 161.352 113.348 161.465 113.941 161.465C114.707 161.465 115.355 161.309 115.887 160.996C116.418 160.684 116.883 160.266 117.281 159.742L118.594 160.785C118.32 161.199 117.973 161.594 117.551 161.969C117.129 162.344 116.609 162.648 115.992 162.883C115.383 163.117 114.66 163.234 113.824 163.234ZM140.707 153.93V155.008C140.707 156.289 140.547 157.438 140.227 158.453C139.906 159.469 139.445 160.332 138.844 161.043C138.242 161.754 137.52 162.297 136.676 162.672C135.84 163.047 134.902 163.234 133.863 163.234C132.855 163.234 131.93 163.047 131.086 162.672C130.25 162.297 129.523 161.754 128.906 161.043C128.297 160.332 127.824 159.469 127.488 158.453C127.152 157.438 126.984 156.289 126.984 155.008V153.93C126.984 152.648 127.148 151.504 127.477 150.496C127.812 149.48 128.285 148.617 128.895 147.906C129.504 147.188 130.227 146.641 131.062 146.266C131.906 145.891 132.832 145.703 133.84 145.703C134.879 145.703 135.816 145.891 136.652 146.266C137.496 146.641 138.219 147.188 138.82 147.906C139.43 148.617 139.895 149.48 140.215 150.496C140.543 151.504 140.707 152.648 140.707 153.93ZM138.469 155.008V153.906C138.469 152.891 138.363 151.992 138.152 151.211C137.949 150.43 137.648 149.773 137.25 149.242C136.852 148.711 136.363 148.309 135.785 148.035C135.215 147.762 134.566 147.625 133.84 147.625C133.137 147.625 132.5 147.762 131.93 148.035C131.367 148.309 130.883 148.711 130.477 149.242C130.078 149.773 129.77 150.43 129.551 151.211C129.332 151.992 129.223 152.891 129.223 153.906V155.008C129.223 156.031 129.332 156.938 129.551 157.727C129.77 158.508 130.082 159.168 130.488 159.707C130.902 160.238 131.391 160.641 131.953 160.914C132.523 161.188 133.16 161.324 133.863 161.324C134.598 161.324 135.25 161.188 135.82 160.914C136.391 160.641 136.871 160.238 137.262 159.707C137.66 159.168 137.961 158.508 138.164 157.727C138.367 156.938 138.469 156.031 138.469 155.008ZM145.934 152.312V163H143.766V150.32H145.875L145.934 152.312ZM149.895 150.25L149.883 152.266C149.703 152.227 149.531 152.203 149.367 152.195C149.211 152.18 149.031 152.172 148.828 152.172C148.328 152.172 147.887 152.25 147.504 152.406C147.121 152.562 146.797 152.781 146.531 153.062C146.266 153.344 146.055 153.68 145.898 154.07C145.75 154.453 145.652 154.875 145.605 155.336L144.996 155.688C144.996 154.922 145.07 154.203 145.219 153.531C145.375 152.859 145.613 152.266 145.934 151.75C146.254 151.227 146.66 150.82 147.152 150.531C147.652 150.234 148.246 150.086 148.934 150.086C149.09 150.086 149.27 150.105 149.473 150.145C149.676 150.176 149.816 150.211 149.895 150.25ZM159.656 160.539V145H161.836V163H159.844L159.656 160.539ZM151.125 156.801V156.555C151.125 155.586 151.242 154.707 151.477 153.918C151.719 153.121 152.059 152.438 152.496 151.867C152.941 151.297 153.469 150.859 154.078 150.555C154.695 150.242 155.383 150.086 156.141 150.086C156.938 150.086 157.633 150.227 158.227 150.508C158.828 150.781 159.336 151.184 159.75 151.715C160.172 152.238 160.504 152.871 160.746 153.613C160.988 154.355 161.156 155.195 161.25 156.133V157.211C161.164 158.141 160.996 158.977 160.746 159.719C160.504 160.461 160.172 161.094 159.75 161.617C159.336 162.141 158.828 162.543 158.227 162.824C157.625 163.098 156.922 163.234 156.117 163.234C155.375 163.234 154.695 163.074 154.078 162.754C153.469 162.434 152.941 161.984 152.496 161.406C152.059 160.828 151.719 160.148 151.477 159.367C151.242 158.578 151.125 157.723 151.125 156.801ZM153.305 156.555V156.801C153.305 157.434 153.367 158.027 153.492 158.582C153.625 159.137 153.828 159.625 154.102 160.047C154.375 160.469 154.723 160.801 155.145 161.043C155.566 161.277 156.07 161.395 156.656 161.395C157.375 161.395 157.965 161.242 158.426 160.938C158.895 160.633 159.27 160.23 159.551 159.73C159.832 159.23 160.051 158.688 160.207 158.102V155.277C160.113 154.848 159.977 154.434 159.797 154.035C159.625 153.629 159.398 153.27 159.117 152.957C158.844 152.637 158.504 152.383 158.098 152.195C157.699 152.008 157.227 151.914 156.68 151.914C156.086 151.914 155.574 152.039 155.145 152.289C154.723 152.531 154.375 152.867 154.102 153.297C153.828 153.719 153.625 154.211 153.492 154.773C153.367 155.328 153.305 155.922 153.305 156.555ZM170.473 163.234C169.59 163.234 168.789 163.086 168.07 162.789C167.359 162.484 166.746 162.059 166.23 161.512C165.723 160.965 165.332 160.316 165.059 159.566C164.785 158.816 164.648 157.996 164.648 157.105V156.613C164.648 155.582 164.801 154.664 165.105 153.859C165.41 153.047 165.824 152.359 166.348 151.797C166.871 151.234 167.465 150.809 168.129 150.52C168.793 150.23 169.48 150.086 170.191 150.086C171.098 150.086 171.879 150.242 172.535 150.555C173.199 150.867 173.742 151.305 174.164 151.867C174.586 152.422 174.898 153.078 175.102 153.836C175.305 154.586 175.406 155.406 175.406 156.297V157.27H165.938V155.5H173.238V155.336C173.207 154.773 173.09 154.227 172.887 153.695C172.691 153.164 172.379 152.727 171.949 152.383C171.52 152.039 170.934 151.867 170.191 151.867C169.699 151.867 169.246 151.973 168.832 152.184C168.418 152.387 168.062 152.691 167.766 153.098C167.469 153.504 167.238 154 167.074 154.586C166.91 155.172 166.828 155.848 166.828 156.613V157.105C166.828 157.707 166.91 158.273 167.074 158.805C167.246 159.328 167.492 159.789 167.812 160.188C168.141 160.586 168.535 160.898 168.996 161.125C169.465 161.352 169.996 161.465 170.59 161.465C171.355 161.465 172.004 161.309 172.535 160.996C173.066 160.684 173.531 160.266 173.93 159.742L175.242 160.785C174.969 161.199 174.621 161.594 174.199 161.969C173.777 162.344 173.258 162.648 172.641 162.883C172.031 163.117 171.309 163.234 170.473 163.234ZM180.105 152.312V163H177.938V150.32H180.047L180.105 152.312ZM184.066 150.25L184.055 152.266C183.875 152.227 183.703 152.203 183.539 152.195C183.383 152.18 183.203 152.172 183 152.172C182.5 152.172 182.059 152.25 181.676 152.406C181.293 152.562 180.969 152.781 180.703 153.062C180.438 153.344 180.227 153.68 180.07 154.07C179.922 154.453 179.824 154.875 179.777 155.336L179.168 155.688C179.168 154.922 179.242 154.203 179.391 153.531C179.547 152.859 179.785 152.266 180.105 151.75C180.426 151.227 180.832 150.82 181.324 150.531C181.824 150.234 182.418 150.086 183.105 150.086C183.262 150.086 183.441 150.105 183.645 150.145C183.848 150.176 183.988 150.211 184.066 150.25ZM193.453 159.637C193.453 159.324 193.383 159.035 193.242 158.77C193.109 158.496 192.832 158.25 192.41 158.031C191.996 157.805 191.371 157.609 190.535 157.445C189.832 157.297 189.195 157.121 188.625 156.918C188.062 156.715 187.582 156.469 187.184 156.18C186.793 155.891 186.492 155.551 186.281 155.16C186.07 154.77 185.965 154.312 185.965 153.789C185.965 153.289 186.074 152.816 186.293 152.371C186.52 151.926 186.836 151.531 187.242 151.188C187.656 150.844 188.152 150.574 188.73 150.379C189.309 150.184 189.953 150.086 190.664 150.086C191.68 150.086 192.547 150.266 193.266 150.625C193.984 150.984 194.535 151.465 194.918 152.066C195.301 152.66 195.492 153.32 195.492 154.047H193.324C193.324 153.695 193.219 153.355 193.008 153.027C192.805 152.691 192.504 152.414 192.105 152.195C191.715 151.977 191.234 151.867 190.664 151.867C190.062 151.867 189.574 151.961 189.199 152.148C188.832 152.328 188.562 152.559 188.391 152.84C188.227 153.121 188.145 153.418 188.145 153.73C188.145 153.965 188.184 154.176 188.262 154.363C188.348 154.543 188.496 154.711 188.707 154.867C188.918 155.016 189.215 155.156 189.598 155.289C189.98 155.422 190.469 155.555 191.062 155.688C192.102 155.922 192.957 156.203 193.629 156.531C194.301 156.859 194.801 157.262 195.129 157.738C195.457 158.215 195.621 158.793 195.621 159.473C195.621 160.027 195.504 160.535 195.27 160.996C195.043 161.457 194.711 161.855 194.273 162.191C193.844 162.52 193.328 162.777 192.727 162.965C192.133 163.145 191.465 163.234 190.723 163.234C189.605 163.234 188.66 163.035 187.887 162.637C187.113 162.238 186.527 161.723 186.129 161.09C185.73 160.457 185.531 159.789 185.531 159.086H187.711C187.742 159.68 187.914 160.152 188.227 160.504C188.539 160.848 188.922 161.094 189.375 161.242C189.828 161.383 190.277 161.453 190.723 161.453C191.316 161.453 191.812 161.375 192.211 161.219C192.617 161.062 192.926 160.848 193.137 160.574C193.348 160.301 193.453 159.988 193.453 159.637Z" fill="white"/>
<defs>
<linearGradient id="paint0_linear_21_185" x1="125" y1="0" x2="125" y2="250" gradientUnits="userSpaceOnUse">
<stop stop-color="#FA6000" stop-opacity="0"/>
<stop offset="1" stop-color="#FA6000"/>
</linearGradient>
</defs>
</svg>
