<svg width="250" height="250" viewBox="0 0 250 250" fill="none" xmlns="http://www.w3.org/2000/svg">
<rect width="250" height="250" fill="url(#paint0_linear_21_189)"/>
<path d="M57.6513 89.92C57.8753 88.352 58.3073 86.968 58.9473 85.768C59.5873 84.552 60.3953 83.536 61.3713 82.72C62.3633 81.904 63.4913 81.288 64.7553 80.872C66.0353 80.44 67.4113 80.224 68.8833 80.224C70.3393 80.224 71.6833 80.432 72.9153 80.848C74.1473 81.264 75.2033 81.856 76.0833 82.624C76.9793 83.392 77.6753 84.32 78.1713 85.408C78.6673 86.496 78.9153 87.704 78.9153 89.032C78.9153 90.12 78.7713 91.096 78.4833 91.96C78.2113 92.808 77.8113 93.552 77.2833 94.192C76.7713 94.832 76.1473 95.376 75.4113 95.824C74.6753 96.272 73.8513 96.64 72.9393 96.928C75.1793 97.504 76.8593 98.496 77.9793 99.904C79.1153 101.296 79.6833 103.04 79.6833 105.136C79.6833 106.72 79.3793 108.144 78.7712 109.408C78.1793 110.672 77.3633 111.752 76.3233 112.648C75.2833 113.528 74.0673 114.208 72.6753 114.688C71.2993 115.152 69.8193 115.384 68.2353 115.384C66.4113 115.384 64.8513 115.16 63.5553 114.712C62.2593 114.248 61.1633 113.616 60.2673 112.816C59.3713 112.016 58.6353 111.072 58.0592 109.984C57.4833 108.88 56.9953 107.688 56.5953 106.408L58.4433 105.64C58.9233 105.432 59.3873 105.376 59.8353 105.472C60.2993 105.568 60.6353 105.832 60.8433 106.264C61.0513 106.712 61.3073 107.248 61.6113 107.872C61.9313 108.496 62.3633 109.096 62.9073 109.672C63.4513 110.248 64.1393 110.736 64.9713 111.136C65.8193 111.536 66.8913 111.736 68.1873 111.736C69.3873 111.736 70.4353 111.544 71.3313 111.16C72.2433 110.76 72.9953 110.248 73.5873 109.624C74.1953 109 74.6513 108.304 74.9553 107.536C75.2593 106.768 75.4113 106.008 75.4113 105.256C75.4113 104.328 75.2913 103.48 75.0513 102.712C74.8113 101.944 74.3633 101.28 73.7073 100.72C73.0513 100.16 72.1473 99.72 70.9953 99.4C69.8593 99.08 68.3953 98.92 66.6033 98.92V95.824C68.0753 95.808 69.3233 95.648 70.3473 95.344C71.3873 95.04 72.2273 94.624 72.8673 94.096C73.5233 93.568 73.9953 92.936 74.2833 92.2C74.5873 91.464 74.7393 90.648 74.7393 89.752C74.7393 88.76 74.5793 87.896 74.2593 87.16C73.9553 86.424 73.5313 85.816 72.9873 85.336C72.4433 84.856 71.7953 84.496 71.0433 84.256C70.3073 84.016 69.5073 83.896 68.6432 83.896C67.7793 83.896 66.9713 84.024 66.2193 84.28C65.4833 84.536 64.8273 84.896 64.2513 85.36C63.6913 85.808 63.2193 86.344 62.8353 86.968C62.4513 87.592 62.1793 88.28 62.0193 89.032C61.8113 89.592 61.5473 89.968 61.2273 90.16C60.9233 90.336 60.4753 90.384 59.8833 90.304L57.6513 89.92ZM85.039 112.36C85.039 111.944 85.111 111.552 85.255 111.184C85.415 110.816 85.623 110.496 85.879 110.224C86.151 109.952 86.471 109.736 86.839 109.576C87.207 109.416 87.599 109.336 88.015 109.336C88.431 109.336 88.823 109.416 89.191 109.576C89.559 109.736 89.879 109.952 90.151 110.224C90.423 110.496 90.639 110.816 90.799 111.184C90.959 111.552 91.039 111.944 91.039 112.36C91.039 112.792 90.959 113.192 90.799 113.56C90.639 113.912 90.423 114.224 90.151 114.496C89.879 114.768 89.559 114.976 89.191 115.12C88.823 115.28 88.431 115.36 88.015 115.36C87.599 115.36 87.207 115.28 86.839 115.12C86.471 114.976 86.151 114.768 85.879 114.496C85.623 114.224 85.415 113.912 85.255 113.56C85.111 113.192 85.039 112.792 85.039 112.36ZM102.407 93.592C104.199 93.208 105.847 93.016 107.351 93.016C109.143 93.016 110.727 93.28 112.103 93.808C113.479 94.336 114.623 95.064 115.535 95.992C116.463 96.92 117.159 98.016 117.623 99.28C118.103 100.544 118.343 101.92 118.343 103.408C118.343 105.232 118.023 106.88 117.383 108.352C116.759 109.824 115.887 111.088 114.767 112.144C113.663 113.184 112.359 113.984 110.855 114.544C109.351 115.104 107.727 115.384 105.983 115.384C104.975 115.384 104.007 115.28 103.079 115.072C102.151 114.88 101.279 114.616 100.463 114.28C99.6628 113.944 98.9188 113.56 98.2308 113.128C97.5428 112.696 96.9348 112.24 96.4068 111.76L97.7268 109.936C98.0148 109.52 98.3908 109.312 98.8548 109.312C99.1748 109.312 99.5348 109.44 99.9348 109.696C100.335 109.936 100.823 110.208 101.399 110.512C101.975 110.816 102.647 111.096 103.415 111.352C104.199 111.592 105.127 111.712 106.199 111.712C107.399 111.712 108.479 111.52 109.439 111.136C110.399 110.752 111.223 110.208 111.911 109.504C112.599 108.784 113.127 107.928 113.495 106.936C113.863 105.944 114.047 104.832 114.047 103.6C114.047 102.528 113.887 101.56 113.567 100.696C113.263 99.832 112.791 99.096 112.151 98.488C111.527 97.88 110.743 97.408 109.799 97.072C108.855 96.736 107.751 96.568 106.487 96.568C105.623 96.568 104.719 96.64 103.775 96.784C102.847 96.928 101.895 97.16 100.919 97.48L98.2308 96.688L100.991 80.608H117.287V82.48C117.287 83.088 117.095 83.592 116.711 83.992C116.343 84.376 115.703 84.568 114.791 84.568H103.991L102.407 93.592ZM130.587 95.68H132.339C132.947 95.68 133.435 95.608 133.803 95.464C134.171 95.304 134.507 95.04 134.811 94.672L146.259 81.712C146.579 81.296 146.915 81.008 147.267 80.848C147.619 80.688 148.051 80.608 148.562 80.608H152.499L139.395 95.416C139.075 95.8 138.763 96.12 138.459 96.376C138.171 96.616 137.859 96.816 137.523 96.976C137.955 97.12 138.347 97.336 138.699 97.624C139.051 97.896 139.395 98.256 139.731 98.704L153.411 115H149.379C149.075 115 148.811 114.984 148.587 114.952C148.379 114.904 148.195 114.84 148.035 114.76C147.875 114.664 147.731 114.56 147.603 114.448C147.491 114.32 147.379 114.176 147.267 114.016L135.411 100.36C135.091 99.96 134.747 99.68 134.379 99.52C134.011 99.344 133.451 99.256 132.699 99.256H130.587V115H125.955V80.608H130.587V95.68ZM191.065 100.504H181.273V110.824H177.793V100.504H168.049V97.264H177.793V87.016H181.273V97.264H191.065V100.504Z" fill="#303030"/>
<path d="M36.4023 145.938V163H34.1758V145.938H36.4023ZM41.8867 145.938V147.789H28.7031V145.938H41.8867ZM45.3672 152.312V163H43.1992V150.32H45.3086L45.3672 152.312ZM49.3281 150.25L49.3164 152.266C49.1367 152.227 48.9648 152.203 48.8008 152.195C48.6445 152.18 48.4648 152.172 48.2617 152.172C47.7617 152.172 47.3203 152.25 46.9375 152.406C46.5547 152.562 46.2305 152.781 45.9648 153.062C45.6992 153.344 45.4883 153.68 45.332 154.07C45.1836 154.453 45.0859 154.875 45.0391 155.336L44.4297 155.688C44.4297 154.922 44.5039 154.203 44.6523 153.531C44.8086 152.859 45.0469 152.266 45.3672 151.75C45.6875 151.227 46.0938 150.82 46.5859 150.531C47.0859 150.234 47.6797 150.086 48.3672 150.086C48.5234 150.086 48.7031 150.105 48.9062 150.145C49.1094 150.176 49.25 150.211 49.3281 150.25ZM59.0898 160.07V150.32H61.2695V163H59.1953L59.0898 160.07ZM59.5 157.398L60.4023 157.375C60.4023 158.219 60.3125 159 60.1328 159.719C59.9609 160.43 59.6797 161.047 59.2891 161.57C58.8984 162.094 58.3867 162.504 57.7539 162.801C57.1211 163.09 56.3516 163.234 55.4453 163.234C54.8281 163.234 54.2617 163.145 53.7461 162.965C53.2383 162.785 52.8008 162.508 52.4336 162.133C52.0664 161.758 51.7812 161.27 51.5781 160.668C51.3828 160.066 51.2852 159.344 51.2852 158.5V150.32H53.4531V158.523C53.4531 159.094 53.5156 159.566 53.6406 159.941C53.7734 160.309 53.9492 160.602 54.168 160.82C54.3945 161.031 54.6445 161.18 54.918 161.266C55.1992 161.352 55.4883 161.395 55.7852 161.395C56.707 161.395 57.4375 161.219 57.9766 160.867C58.5156 160.508 58.9023 160.027 59.1367 159.426C59.3789 158.816 59.5 158.141 59.5 157.398ZM71.957 159.637C71.957 159.324 71.8867 159.035 71.7461 158.77C71.6133 158.496 71.3359 158.25 70.9141 158.031C70.5 157.805 69.875 157.609 69.0391 157.445C68.3359 157.297 67.6992 157.121 67.1289 156.918C66.5664 156.715 66.0859 156.469 65.6875 156.18C65.2969 155.891 64.9961 155.551 64.7852 155.16C64.5742 154.77 64.4688 154.312 64.4688 153.789C64.4688 153.289 64.5781 152.816 64.7969 152.371C65.0234 151.926 65.3398 151.531 65.7461 151.188C66.1602 150.844 66.6562 150.574 67.2344 150.379C67.8125 150.184 68.457 150.086 69.168 150.086C70.1836 150.086 71.0508 150.266 71.7695 150.625C72.4883 150.984 73.0391 151.465 73.4219 152.066C73.8047 152.66 73.9961 153.32 73.9961 154.047H71.8281C71.8281 153.695 71.7227 153.355 71.5117 153.027C71.3086 152.691 71.0078 152.414 70.6094 152.195C70.2188 151.977 69.7383 151.867 69.168 151.867C68.5664 151.867 68.0781 151.961 67.7031 152.148C67.3359 152.328 67.0664 152.559 66.8945 152.84C66.7305 153.121 66.6484 153.418 66.6484 153.73C66.6484 153.965 66.6875 154.176 66.7656 154.363C66.8516 154.543 67 154.711 67.2109 154.867C67.4219 155.016 67.7188 155.156 68.1016 155.289C68.4844 155.422 68.9727 155.555 69.5664 155.688C70.6055 155.922 71.4609 156.203 72.1328 156.531C72.8047 156.859 73.3047 157.262 73.6328 157.738C73.9609 158.215 74.125 158.793 74.125 159.473C74.125 160.027 74.0078 160.535 73.7734 160.996C73.5469 161.457 73.2148 161.855 72.7773 162.191C72.3477 162.52 71.832 162.777 71.2305 162.965C70.6367 163.145 69.9688 163.234 69.2266 163.234C68.1094 163.234 67.1641 163.035 66.3906 162.637C65.6172 162.238 65.0312 161.723 64.6328 161.09C64.2344 160.457 64.0352 159.789 64.0352 159.086H66.2148C66.2461 159.68 66.418 160.152 66.7305 160.504C67.043 160.848 67.4258 161.094 67.8789 161.242C68.332 161.383 68.7812 161.453 69.2266 161.453C69.8203 161.453 70.3164 161.375 70.7148 161.219C71.1211 161.062 71.4297 160.848 71.6406 160.574C71.8516 160.301 71.957 159.988 71.957 159.637ZM82.2812 150.32V151.984H75.4258V150.32H82.2812ZM77.7461 147.238H79.9141V159.859C79.9141 160.289 79.9805 160.613 80.1133 160.832C80.2461 161.051 80.418 161.195 80.6289 161.266C80.8398 161.336 81.0664 161.371 81.3086 161.371C81.4883 161.371 81.6758 161.355 81.8711 161.324C82.0742 161.285 82.2266 161.254 82.3281 161.23L82.3398 163C82.168 163.055 81.9414 163.105 81.6602 163.152C81.3867 163.207 81.0547 163.234 80.6641 163.234C80.1328 163.234 79.6445 163.129 79.1992 162.918C78.7539 162.707 78.3984 162.355 78.1328 161.863C77.875 161.363 77.7461 160.691 77.7461 159.848V147.238ZM90.0859 163.234C89.2031 163.234 88.4023 163.086 87.6836 162.789C86.9727 162.484 86.3594 162.059 85.8438 161.512C85.3359 160.965 84.9453 160.316 84.6719 159.566C84.3984 158.816 84.2617 157.996 84.2617 157.105V156.613C84.2617 155.582 84.4141 154.664 84.7188 153.859C85.0234 153.047 85.4375 152.359 85.9609 151.797C86.4844 151.234 87.0781 150.809 87.7422 150.52C88.4062 150.23 89.0938 150.086 89.8047 150.086C90.7109 150.086 91.4922 150.242 92.1484 150.555C92.8125 150.867 93.3555 151.305 93.7773 151.867C94.1992 152.422 94.5117 153.078 94.7148 153.836C94.918 154.586 95.0195 155.406 95.0195 156.297V157.27H85.5508V155.5H92.8516V155.336C92.8203 154.773 92.7031 154.227 92.5 153.695C92.3047 153.164 91.9922 152.727 91.5625 152.383C91.1328 152.039 90.5469 151.867 89.8047 151.867C89.3125 151.867 88.8594 151.973 88.4453 152.184C88.0312 152.387 87.6758 152.691 87.3789 153.098C87.082 153.504 86.8516 154 86.6875 154.586C86.5234 155.172 86.4414 155.848 86.4414 156.613V157.105C86.4414 157.707 86.5234 158.273 86.6875 158.805C86.8594 159.328 87.1055 159.789 87.4258 160.188C87.7539 160.586 88.1484 160.898 88.6094 161.125C89.0781 161.352 89.6094 161.465 90.2031 161.465C90.9688 161.465 91.6172 161.309 92.1484 160.996C92.6797 160.684 93.1445 160.266 93.543 159.742L94.8555 160.785C94.582 161.199 94.2344 161.594 93.8125 161.969C93.3906 162.344 92.8711 162.648 92.2539 162.883C91.6445 163.117 90.9219 163.234 90.0859 163.234ZM105.543 160.539V145H107.723V163H105.73L105.543 160.539ZM97.0117 156.801V156.555C97.0117 155.586 97.1289 154.707 97.3633 153.918C97.6055 153.121 97.9453 152.438 98.3828 151.867C98.8281 151.297 99.3555 150.859 99.9648 150.555C100.582 150.242 101.27 150.086 102.027 150.086C102.824 150.086 103.52 150.227 104.113 150.508C104.715 150.781 105.223 151.184 105.637 151.715C106.059 152.238 106.391 152.871 106.633 153.613C106.875 154.355 107.043 155.195 107.137 156.133V157.211C107.051 158.141 106.883 158.977 106.633 159.719C106.391 160.461 106.059 161.094 105.637 161.617C105.223 162.141 104.715 162.543 104.113 162.824C103.512 163.098 102.809 163.234 102.004 163.234C101.262 163.234 100.582 163.074 99.9648 162.754C99.3555 162.434 98.8281 161.984 98.3828 161.406C97.9453 160.828 97.6055 160.148 97.3633 159.367C97.1289 158.578 97.0117 157.723 97.0117 156.801ZM99.1914 156.555V156.801C99.1914 157.434 99.2539 158.027 99.3789 158.582C99.5117 159.137 99.7148 159.625 99.9883 160.047C100.262 160.469 100.609 160.801 101.031 161.043C101.453 161.277 101.957 161.395 102.543 161.395C103.262 161.395 103.852 161.242 104.312 160.938C104.781 160.633 105.156 160.23 105.438 159.73C105.719 159.23 105.938 158.688 106.094 158.102V155.277C106 154.848 105.863 154.434 105.684 154.035C105.512 153.629 105.285 153.27 105.004 152.957C104.73 152.637 104.391 152.383 103.984 152.195C103.586 152.008 103.113 151.914 102.566 151.914C101.973 151.914 101.461 152.039 101.031 152.289C100.609 152.531 100.262 152.867 99.9883 153.297C99.7148 153.719 99.5117 154.211 99.3789 154.773C99.2539 155.328 99.1914 155.922 99.1914 156.555ZM127.68 157.574H129.93C129.812 158.652 129.504 159.617 129.004 160.469C128.504 161.32 127.797 161.996 126.883 162.496C125.969 162.988 124.828 163.234 123.461 163.234C122.461 163.234 121.551 163.047 120.73 162.672C119.918 162.297 119.219 161.766 118.633 161.078C118.047 160.383 117.594 159.551 117.273 158.582C116.961 157.605 116.805 156.52 116.805 155.324V153.625C116.805 152.43 116.961 151.348 117.273 150.379C117.594 149.402 118.051 148.566 118.645 147.871C119.246 147.176 119.969 146.641 120.812 146.266C121.656 145.891 122.605 145.703 123.66 145.703C124.949 145.703 126.039 145.945 126.93 146.43C127.82 146.914 128.512 147.586 129.004 148.445C129.504 149.297 129.812 150.285 129.93 151.41H127.68C127.57 150.613 127.367 149.93 127.07 149.359C126.773 148.781 126.352 148.336 125.805 148.023C125.258 147.711 124.543 147.555 123.66 147.555C122.902 147.555 122.234 147.699 121.656 147.988C121.086 148.277 120.605 148.688 120.215 149.219C119.832 149.75 119.543 150.387 119.348 151.129C119.152 151.871 119.055 152.695 119.055 153.602V155.324C119.055 156.16 119.141 156.945 119.312 157.68C119.492 158.414 119.762 159.059 120.121 159.613C120.48 160.168 120.938 160.605 121.492 160.926C122.047 161.238 122.703 161.395 123.461 161.395C124.422 161.395 125.188 161.242 125.758 160.938C126.328 160.633 126.758 160.195 127.047 159.625C127.344 159.055 127.555 158.371 127.68 157.574ZM140.441 160.07V150.32H142.621V163H140.547L140.441 160.07ZM140.852 157.398L141.754 157.375C141.754 158.219 141.664 159 141.484 159.719C141.312 160.43 141.031 161.047 140.641 161.57C140.25 162.094 139.738 162.504 139.105 162.801C138.473 163.09 137.703 163.234 136.797 163.234C136.18 163.234 135.613 163.145 135.098 162.965C134.59 162.785 134.152 162.508 133.785 162.133C133.418 161.758 133.133 161.27 132.93 160.668C132.734 160.066 132.637 159.344 132.637 158.5V150.32H134.805V158.523C134.805 159.094 134.867 159.566 134.992 159.941C135.125 160.309 135.301 160.602 135.52 160.82C135.746 161.031 135.996 161.18 136.27 161.266C136.551 161.352 136.84 161.395 137.137 161.395C138.059 161.395 138.789 161.219 139.328 160.867C139.867 160.508 140.254 160.027 140.488 159.426C140.73 158.816 140.852 158.141 140.852 157.398ZM153.309 159.637C153.309 159.324 153.238 159.035 153.098 158.77C152.965 158.496 152.688 158.25 152.266 158.031C151.852 157.805 151.227 157.609 150.391 157.445C149.688 157.297 149.051 157.121 148.48 156.918C147.918 156.715 147.438 156.469 147.039 156.18C146.648 155.891 146.348 155.551 146.137 155.16C145.926 154.77 145.82 154.312 145.82 153.789C145.82 153.289 145.93 152.816 146.148 152.371C146.375 151.926 146.691 151.531 147.098 151.188C147.512 150.844 148.008 150.574 148.586 150.379C149.164 150.184 149.809 150.086 150.52 150.086C151.535 150.086 152.402 150.266 153.121 150.625C153.84 150.984 154.391 151.465 154.773 152.066C155.156 152.66 155.348 153.32 155.348 154.047H153.18C153.18 153.695 153.074 153.355 152.863 153.027C152.66 152.691 152.359 152.414 151.961 152.195C151.57 151.977 151.09 151.867 150.52 151.867C149.918 151.867 149.43 151.961 149.055 152.148C148.688 152.328 148.418 152.559 148.246 152.84C148.082 153.121 148 153.418 148 153.73C148 153.965 148.039 154.176 148.117 154.363C148.203 154.543 148.352 154.711 148.562 154.867C148.773 155.016 149.07 155.156 149.453 155.289C149.836 155.422 150.324 155.555 150.918 155.688C151.957 155.922 152.812 156.203 153.484 156.531C154.156 156.859 154.656 157.262 154.984 157.738C155.312 158.215 155.477 158.793 155.477 159.473C155.477 160.027 155.359 160.535 155.125 160.996C154.898 161.457 154.566 161.855 154.129 162.191C153.699 162.52 153.184 162.777 152.582 162.965C151.988 163.145 151.32 163.234 150.578 163.234C149.461 163.234 148.516 163.035 147.742 162.637C146.969 162.238 146.383 161.723 145.984 161.09C145.586 160.457 145.387 159.789 145.387 159.086H147.566C147.598 159.68 147.77 160.152 148.082 160.504C148.395 160.848 148.777 161.094 149.23 161.242C149.684 161.383 150.133 161.453 150.578 161.453C151.172 161.453 151.668 161.375 152.066 161.219C152.473 161.062 152.781 160.848 152.992 160.574C153.203 160.301 153.309 159.988 153.309 159.637ZM163.633 150.32V151.984H156.777V150.32H163.633ZM159.098 147.238H161.266V159.859C161.266 160.289 161.332 160.613 161.465 160.832C161.598 161.051 161.77 161.195 161.98 161.266C162.191 161.336 162.418 161.371 162.66 161.371C162.84 161.371 163.027 161.355 163.223 161.324C163.426 161.285 163.578 161.254 163.68 161.23L163.691 163C163.52 163.055 163.293 163.105 163.012 163.152C162.738 163.207 162.406 163.234 162.016 163.234C161.484 163.234 160.996 163.129 160.551 162.918C160.105 162.707 159.75 162.355 159.484 161.863C159.227 161.363 159.098 160.691 159.098 159.848V147.238ZM165.367 156.801V156.531C165.367 155.617 165.5 154.77 165.766 153.988C166.031 153.199 166.414 152.516 166.914 151.938C167.414 151.352 168.02 150.898 168.73 150.578C169.441 150.25 170.238 150.086 171.121 150.086C172.012 150.086 172.812 150.25 173.523 150.578C174.242 150.898 174.852 151.352 175.352 151.938C175.859 152.516 176.246 153.199 176.512 153.988C176.777 154.77 176.91 155.617 176.91 156.531V156.801C176.91 157.715 176.777 158.562 176.512 159.344C176.246 160.125 175.859 160.809 175.352 161.395C174.852 161.973 174.246 162.426 173.535 162.754C172.832 163.074 172.035 163.234 171.145 163.234C170.254 163.234 169.453 163.074 168.742 162.754C168.031 162.426 167.422 161.973 166.914 161.395C166.414 160.809 166.031 160.125 165.766 159.344C165.5 158.562 165.367 157.715 165.367 156.801ZM167.535 156.531V156.801C167.535 157.434 167.609 158.031 167.758 158.594C167.906 159.148 168.129 159.641 168.426 160.07C168.73 160.5 169.109 160.84 169.562 161.09C170.016 161.332 170.543 161.453 171.145 161.453C171.738 161.453 172.258 161.332 172.703 161.09C173.156 160.84 173.531 160.5 173.828 160.07C174.125 159.641 174.348 159.148 174.496 158.594C174.652 158.031 174.73 157.434 174.73 156.801V156.531C174.73 155.906 174.652 155.316 174.496 154.762C174.348 154.199 174.121 153.703 173.816 153.273C173.52 152.836 173.145 152.492 172.691 152.242C172.246 151.992 171.723 151.867 171.121 151.867C170.527 151.867 170.004 151.992 169.551 152.242C169.105 152.492 168.73 152.836 168.426 153.273C168.129 153.703 167.906 154.199 167.758 154.762C167.609 155.316 167.535 155.906 167.535 156.531ZM181.785 152.84V163H179.605V150.32H181.668L181.785 152.84ZM181.34 156.18L180.332 156.145C180.34 155.277 180.453 154.477 180.672 153.742C180.891 153 181.215 152.355 181.645 151.809C182.074 151.262 182.609 150.84 183.25 150.543C183.891 150.238 184.633 150.086 185.477 150.086C186.07 150.086 186.617 150.172 187.117 150.344C187.617 150.508 188.051 150.77 188.418 151.129C188.785 151.488 189.07 151.949 189.273 152.512C189.477 153.074 189.578 153.754 189.578 154.551V163H187.41V154.656C187.41 153.992 187.297 153.461 187.07 153.062C186.852 152.664 186.539 152.375 186.133 152.195C185.727 152.008 185.25 151.914 184.703 151.914C184.062 151.914 183.527 152.027 183.098 152.254C182.668 152.48 182.324 152.793 182.066 153.191C181.809 153.59 181.621 154.047 181.504 154.562C181.395 155.07 181.34 155.609 181.34 156.18ZM189.555 154.984L188.102 155.43C188.109 154.734 188.223 154.066 188.441 153.426C188.668 152.785 188.992 152.215 189.414 151.715C189.844 151.215 190.371 150.82 190.996 150.531C191.621 150.234 192.336 150.086 193.141 150.086C193.82 150.086 194.422 150.176 194.945 150.355C195.477 150.535 195.922 150.812 196.281 151.188C196.648 151.555 196.926 152.027 197.113 152.605C197.301 153.184 197.395 153.871 197.395 154.668V163H195.215V154.645C195.215 153.934 195.102 153.383 194.875 152.992C194.656 152.594 194.344 152.316 193.938 152.16C193.539 151.996 193.062 151.914 192.508 151.914C192.031 151.914 191.609 151.996 191.242 152.16C190.875 152.324 190.566 152.551 190.316 152.84C190.066 153.121 189.875 153.445 189.742 153.812C189.617 154.18 189.555 154.57 189.555 154.984ZM205.938 163.234C205.055 163.234 204.254 163.086 203.535 162.789C202.824 162.484 202.211 162.059 201.695 161.512C201.188 160.965 200.797 160.316 200.523 159.566C200.25 158.816 200.113 157.996 200.113 157.105V156.613C200.113 155.582 200.266 154.664 200.57 153.859C200.875 153.047 201.289 152.359 201.812 151.797C202.336 151.234 202.93 150.809 203.594 150.52C204.258 150.23 204.945 150.086 205.656 150.086C206.562 150.086 207.344 150.242 208 150.555C208.664 150.867 209.207 151.305 209.629 151.867C210.051 152.422 210.363 153.078 210.566 153.836C210.77 154.586 210.871 155.406 210.871 156.297V157.27H201.402V155.5H208.703V155.336C208.672 154.773 208.555 154.227 208.352 153.695C208.156 153.164 207.844 152.727 207.414 152.383C206.984 152.039 206.398 151.867 205.656 151.867C205.164 151.867 204.711 151.973 204.297 152.184C203.883 152.387 203.527 152.691 203.23 153.098C202.934 153.504 202.703 154 202.539 154.586C202.375 155.172 202.293 155.848 202.293 156.613V157.105C202.293 157.707 202.375 158.273 202.539 158.805C202.711 159.328 202.957 159.789 203.277 160.188C203.605 160.586 204 160.898 204.461 161.125C204.93 161.352 205.461 161.465 206.055 161.465C206.82 161.465 207.469 161.309 208 160.996C208.531 160.684 208.996 160.266 209.395 159.742L210.707 160.785C210.434 161.199 210.086 161.594 209.664 161.969C209.242 162.344 208.723 162.648 208.105 162.883C207.496 163.117 206.773 163.234 205.938 163.234ZM215.57 152.312V163H213.402V150.32H215.512L215.57 152.312ZM219.531 150.25L219.52 152.266C219.34 152.227 219.168 152.203 219.004 152.195C218.848 152.18 218.668 152.172 218.465 152.172C217.965 152.172 217.523 152.25 217.141 152.406C216.758 152.562 216.434 152.781 216.168 153.062C215.902 153.344 215.691 153.68 215.535 154.07C215.387 154.453 215.289 154.875 215.242 155.336L214.633 155.688C214.633 154.922 214.707 154.203 214.855 153.531C215.012 152.859 215.25 152.266 215.57 151.75C215.891 151.227 216.297 150.82 216.789 150.531C217.289 150.234 217.883 150.086 218.57 150.086C218.727 150.086 218.906 150.105 219.109 150.145C219.312 150.176 219.453 150.211 219.531 150.25Z" fill="white"/>
<defs>
<linearGradient id="paint0_linear_21_189" x1="125" y1="0" x2="125" y2="250" gradientUnits="userSpaceOnUse">
<stop stop-color="#FA6000" stop-opacity="0"/>
<stop offset="1" stop-color="#FA6000"/>
</linearGradient>
</defs>
</svg>
