<svg width="250" height="250" viewBox="0 0 250 250" fill="none" xmlns="http://www.w3.org/2000/svg">
<rect width="250" height="250" fill="url(#paint0_linear_21_181)"/>
<path d="M79.4633 111.736V115H61.0312V111.736H68.3993V88.288C68.3993 87.584 68.4233 86.872 68.4713 86.152L62.3513 91.408C62.1433 91.584 61.9353 91.696 61.7273 91.744C61.5193 91.776 61.3273 91.776 61.1513 91.744C60.9753 91.712 60.8073 91.648 60.6473 91.552C60.5033 91.456 60.3913 91.352 60.3113 91.24L58.9673 89.392L69.2153 80.536H72.6953V111.736H79.4633ZM85.539 112.36C85.539 111.944 85.611 111.552 85.755 111.184C85.915 110.816 86.123 110.496 86.379 110.224C86.651 109.952 86.971 109.736 87.339 109.576C87.707 109.416 88.099 109.336 88.515 109.336C88.931 109.336 89.323 109.416 89.691 109.576C90.059 109.736 90.379 109.952 90.651 110.224C90.923 110.496 91.139 110.816 91.299 111.184C91.459 111.552 91.539 111.944 91.539 112.36C91.539 112.792 91.459 113.192 91.299 113.56C91.139 113.912 90.923 114.224 90.651 114.496C90.379 114.768 90.059 114.976 89.691 115.12C89.323 115.28 88.931 115.36 88.515 115.36C88.099 115.36 87.707 115.28 87.339 115.12C86.971 114.976 86.651 114.768 86.379 114.496C86.123 114.224 85.915 113.912 85.755 113.56C85.611 113.192 85.539 112.792 85.539 112.36ZM102.907 93.592C104.699 93.208 106.347 93.016 107.851 93.016C109.643 93.016 111.227 93.28 112.603 93.808C113.979 94.336 115.123 95.064 116.035 95.992C116.963 96.92 117.659 98.016 118.123 99.28C118.603 100.544 118.843 101.92 118.843 103.408C118.843 105.232 118.523 106.88 117.883 108.352C117.259 109.824 116.387 111.088 115.267 112.144C114.163 113.184 112.859 113.984 111.355 114.544C109.851 115.104 108.227 115.384 106.483 115.384C105.475 115.384 104.507 115.28 103.579 115.072C102.651 114.88 101.779 114.616 100.963 114.28C100.163 113.944 99.4188 113.56 98.7308 113.128C98.0428 112.696 97.4348 112.24 96.9068 111.76L98.2268 109.936C98.5148 109.52 98.8908 109.312 99.3548 109.312C99.6748 109.312 100.035 109.44 100.435 109.696C100.835 109.936 101.323 110.208 101.899 110.512C102.475 110.816 103.147 111.096 103.915 111.352C104.699 111.592 105.627 111.712 106.699 111.712C107.899 111.712 108.979 111.52 109.939 111.136C110.899 110.752 111.723 110.208 112.411 109.504C113.099 108.784 113.627 107.928 113.995 106.936C114.363 105.944 114.547 104.832 114.547 103.6C114.547 102.528 114.387 101.56 114.067 100.696C113.763 99.832 113.291 99.096 112.651 98.488C112.027 97.88 111.243 97.408 110.299 97.072C109.355 96.736 108.251 96.568 106.987 96.568C106.123 96.568 105.219 96.64 104.275 96.784C103.347 96.928 102.395 97.16 101.419 97.48L98.7308 96.688L101.491 80.608H117.787V82.48C117.787 83.088 117.595 83.592 117.211 83.992C116.843 84.376 116.203 84.568 115.291 84.568H104.491L102.907 93.592ZM131.087 95.68H132.839C133.447 95.68 133.935 95.608 134.303 95.464C134.671 95.304 135.007 95.04 135.311 94.672L146.759 81.712C147.079 81.296 147.415 81.008 147.767 80.848C148.119 80.688 148.551 80.608 149.062 80.608H152.999L139.895 95.416C139.575 95.8 139.263 96.12 138.959 96.376C138.671 96.616 138.359 96.816 138.023 96.976C138.455 97.12 138.847 97.336 139.199 97.624C139.551 97.896 139.895 98.256 140.231 98.704L153.911 115H149.879C149.575 115 149.311 114.984 149.087 114.952C148.879 114.904 148.695 114.84 148.535 114.76C148.375 114.664 148.231 114.56 148.103 114.448C147.991 114.32 147.879 114.176 147.767 114.016L135.911 100.36C135.591 99.96 135.247 99.68 134.879 99.52C134.511 99.344 133.951 99.256 133.199 99.256H131.087V115H126.455V80.608H131.087V95.68ZM191.565 100.504H181.773V110.824H178.293V100.504H168.549V97.264H178.293V87.016H181.773V97.264H191.565V100.504Z" fill="#303030"/>
<path d="M47.4258 157.574H49.6758C49.5586 158.652 49.25 159.617 48.75 160.469C48.25 161.32 47.543 161.996 46.6289 162.496C45.7148 162.988 44.5742 163.234 43.207 163.234C42.207 163.234 41.2969 163.047 40.4766 162.672C39.6641 162.297 38.9648 161.766 38.3789 161.078C37.793 160.383 37.3398 159.551 37.0195 158.582C36.707 157.605 36.5508 156.52 36.5508 155.324V153.625C36.5508 152.43 36.707 151.348 37.0195 150.379C37.3398 149.402 37.7969 148.566 38.3906 147.871C38.9922 147.176 39.7148 146.641 40.5586 146.266C41.4023 145.891 42.3516 145.703 43.4062 145.703C44.6953 145.703 45.7852 145.945 46.6758 146.43C47.5664 146.914 48.2578 147.586 48.75 148.445C49.25 149.297 49.5586 150.285 49.6758 151.41H47.4258C47.3164 150.613 47.1133 149.93 46.8164 149.359C46.5195 148.781 46.0977 148.336 45.5508 148.023C45.0039 147.711 44.2891 147.555 43.4062 147.555C42.6484 147.555 41.9805 147.699 41.4023 147.988C40.832 148.277 40.3516 148.688 39.9609 149.219C39.5781 149.75 39.2891 150.387 39.0938 151.129C38.8984 151.871 38.8008 152.695 38.8008 153.602V155.324C38.8008 156.16 38.8867 156.945 39.0586 157.68C39.2383 158.414 39.5078 159.059 39.8672 159.613C40.2266 160.168 40.6836 160.605 41.2383 160.926C41.793 161.238 42.4492 161.395 43.207 161.395C44.168 161.395 44.9336 161.242 45.5039 160.938C46.0742 160.633 46.5039 160.195 46.793 159.625C47.0898 159.055 47.3008 158.371 47.4258 157.574ZM60.1875 160.07V150.32H62.3672V163H60.293L60.1875 160.07ZM60.5977 157.398L61.5 157.375C61.5 158.219 61.4102 159 61.2305 159.719C61.0586 160.43 60.7773 161.047 60.3867 161.57C59.9961 162.094 59.4844 162.504 58.8516 162.801C58.2188 163.09 57.4492 163.234 56.543 163.234C55.9258 163.234 55.3594 163.145 54.8438 162.965C54.3359 162.785 53.8984 162.508 53.5312 162.133C53.1641 161.758 52.8789 161.27 52.6758 160.668C52.4805 160.066 52.3828 159.344 52.3828 158.5V150.32H54.5508V158.523C54.5508 159.094 54.6133 159.566 54.7383 159.941C54.8711 160.309 55.0469 160.602 55.2656 160.82C55.4922 161.031 55.7422 161.18 56.0156 161.266C56.2969 161.352 56.5859 161.395 56.8828 161.395C57.8047 161.395 58.5352 161.219 59.0742 160.867C59.6133 160.508 60 160.027 60.2344 159.426C60.4766 158.816 60.5977 158.141 60.5977 157.398ZM73.0547 159.637C73.0547 159.324 72.9844 159.035 72.8438 158.77C72.7109 158.496 72.4336 158.25 72.0117 158.031C71.5977 157.805 70.9727 157.609 70.1367 157.445C69.4336 157.297 68.7969 157.121 68.2266 156.918C67.6641 156.715 67.1836 156.469 66.7852 156.18C66.3945 155.891 66.0938 155.551 65.8828 155.16C65.6719 154.77 65.5664 154.312 65.5664 153.789C65.5664 153.289 65.6758 152.816 65.8945 152.371C66.1211 151.926 66.4375 151.531 66.8438 151.188C67.2578 150.844 67.7539 150.574 68.332 150.379C68.9102 150.184 69.5547 150.086 70.2656 150.086C71.2812 150.086 72.1484 150.266 72.8672 150.625C73.5859 150.984 74.1367 151.465 74.5195 152.066C74.9023 152.66 75.0938 153.32 75.0938 154.047H72.9258C72.9258 153.695 72.8203 153.355 72.6094 153.027C72.4062 152.691 72.1055 152.414 71.707 152.195C71.3164 151.977 70.8359 151.867 70.2656 151.867C69.6641 151.867 69.1758 151.961 68.8008 152.148C68.4336 152.328 68.1641 152.559 67.9922 152.84C67.8281 153.121 67.7461 153.418 67.7461 153.73C67.7461 153.965 67.7852 154.176 67.8633 154.363C67.9492 154.543 68.0977 154.711 68.3086 154.867C68.5195 155.016 68.8164 155.156 69.1992 155.289C69.582 155.422 70.0703 155.555 70.6641 155.688C71.7031 155.922 72.5586 156.203 73.2305 156.531C73.9023 156.859 74.4023 157.262 74.7305 157.738C75.0586 158.215 75.2227 158.793 75.2227 159.473C75.2227 160.027 75.1055 160.535 74.8711 160.996C74.6445 161.457 74.3125 161.855 73.875 162.191C73.4453 162.52 72.9297 162.777 72.3281 162.965C71.7344 163.145 71.0664 163.234 70.3242 163.234C69.207 163.234 68.2617 163.035 67.4883 162.637C66.7148 162.238 66.1289 161.723 65.7305 161.09C65.332 160.457 65.1328 159.789 65.1328 159.086H67.3125C67.3438 159.68 67.5156 160.152 67.8281 160.504C68.1406 160.848 68.5234 161.094 68.9766 161.242C69.4297 161.383 69.8789 161.453 70.3242 161.453C70.918 161.453 71.4141 161.375 71.8125 161.219C72.2188 161.062 72.5273 160.848 72.7383 160.574C72.9492 160.301 73.0547 159.988 73.0547 159.637ZM83.3789 150.32V151.984H76.5234V150.32H83.3789ZM78.8438 147.238H81.0117V159.859C81.0117 160.289 81.0781 160.613 81.2109 160.832C81.3438 161.051 81.5156 161.195 81.7266 161.266C81.9375 161.336 82.1641 161.371 82.4062 161.371C82.5859 161.371 82.7734 161.355 82.9688 161.324C83.1719 161.285 83.3242 161.254 83.4258 161.23L83.4375 163C83.2656 163.055 83.0391 163.105 82.7578 163.152C82.4844 163.207 82.1523 163.234 81.7617 163.234C81.2305 163.234 80.7422 163.129 80.2969 162.918C79.8516 162.707 79.4961 162.355 79.2305 161.863C78.9727 161.363 78.8438 160.691 78.8438 159.848V147.238ZM85.1133 156.801V156.531C85.1133 155.617 85.2461 154.77 85.5117 153.988C85.7773 153.199 86.1602 152.516 86.6602 151.938C87.1602 151.352 87.7656 150.898 88.4766 150.578C89.1875 150.25 89.9844 150.086 90.8672 150.086C91.7578 150.086 92.5586 150.25 93.2695 150.578C93.9883 150.898 94.5977 151.352 95.0977 151.938C95.6055 152.516 95.9922 153.199 96.2578 153.988C96.5234 154.77 96.6562 155.617 96.6562 156.531V156.801C96.6562 157.715 96.5234 158.562 96.2578 159.344C95.9922 160.125 95.6055 160.809 95.0977 161.395C94.5977 161.973 93.9922 162.426 93.2812 162.754C92.5781 163.074 91.7812 163.234 90.8906 163.234C90 163.234 89.1992 163.074 88.4883 162.754C87.7773 162.426 87.168 161.973 86.6602 161.395C86.1602 160.809 85.7773 160.125 85.5117 159.344C85.2461 158.562 85.1133 157.715 85.1133 156.801ZM87.2812 156.531V156.801C87.2812 157.434 87.3555 158.031 87.5039 158.594C87.6523 159.148 87.875 159.641 88.1719 160.07C88.4766 160.5 88.8555 160.84 89.3086 161.09C89.7617 161.332 90.2891 161.453 90.8906 161.453C91.4844 161.453 92.0039 161.332 92.4492 161.09C92.9023 160.84 93.2773 160.5 93.5742 160.07C93.8711 159.641 94.0938 159.148 94.2422 158.594C94.3984 158.031 94.4766 157.434 94.4766 156.801V156.531C94.4766 155.906 94.3984 155.316 94.2422 154.762C94.0938 154.199 93.8672 153.703 93.5625 153.273C93.2656 152.836 92.8906 152.492 92.4375 152.242C91.9922 151.992 91.4688 151.867 90.8672 151.867C90.2734 151.867 89.75 151.992 89.2969 152.242C88.8516 152.492 88.4766 152.836 88.1719 153.273C87.875 153.703 87.6523 154.199 87.5039 154.762C87.3555 155.316 87.2812 155.906 87.2812 156.531ZM101.531 152.84V163H99.3516V150.32H101.414L101.531 152.84ZM101.086 156.18L100.078 156.145C100.086 155.277 100.199 154.477 100.418 153.742C100.637 153 100.961 152.355 101.391 151.809C101.82 151.262 102.355 150.84 102.996 150.543C103.637 150.238 104.379 150.086 105.223 150.086C105.816 150.086 106.363 150.172 106.863 150.344C107.363 150.508 107.797 150.77 108.164 151.129C108.531 151.488 108.816 151.949 109.02 152.512C109.223 153.074 109.324 153.754 109.324 154.551V163H107.156V154.656C107.156 153.992 107.043 153.461 106.816 153.062C106.598 152.664 106.285 152.375 105.879 152.195C105.473 152.008 104.996 151.914 104.449 151.914C103.809 151.914 103.273 152.027 102.844 152.254C102.414 152.48 102.07 152.793 101.812 153.191C101.555 153.59 101.367 154.047 101.25 154.562C101.141 155.07 101.086 155.609 101.086 156.18ZM109.301 154.984L107.848 155.43C107.855 154.734 107.969 154.066 108.188 153.426C108.414 152.785 108.738 152.215 109.16 151.715C109.59 151.215 110.117 150.82 110.742 150.531C111.367 150.234 112.082 150.086 112.887 150.086C113.566 150.086 114.168 150.176 114.691 150.355C115.223 150.535 115.668 150.812 116.027 151.188C116.395 151.555 116.672 152.027 116.859 152.605C117.047 153.184 117.141 153.871 117.141 154.668V163H114.961V154.645C114.961 153.934 114.848 153.383 114.621 152.992C114.402 152.594 114.09 152.316 113.684 152.16C113.285 151.996 112.809 151.914 112.254 151.914C111.777 151.914 111.355 151.996 110.988 152.16C110.621 152.324 110.312 152.551 110.062 152.84C109.812 153.121 109.621 153.445 109.488 153.812C109.363 154.18 109.301 154.57 109.301 154.984ZM125.684 163.234C124.801 163.234 124 163.086 123.281 162.789C122.57 162.484 121.957 162.059 121.441 161.512C120.934 160.965 120.543 160.316 120.27 159.566C119.996 158.816 119.859 157.996 119.859 157.105V156.613C119.859 155.582 120.012 154.664 120.316 153.859C120.621 153.047 121.035 152.359 121.559 151.797C122.082 151.234 122.676 150.809 123.34 150.52C124.004 150.23 124.691 150.086 125.402 150.086C126.309 150.086 127.09 150.242 127.746 150.555C128.41 150.867 128.953 151.305 129.375 151.867C129.797 152.422 130.109 153.078 130.312 153.836C130.516 154.586 130.617 155.406 130.617 156.297V157.27H121.148V155.5H128.449V155.336C128.418 154.773 128.301 154.227 128.098 153.695C127.902 153.164 127.59 152.727 127.16 152.383C126.73 152.039 126.145 151.867 125.402 151.867C124.91 151.867 124.457 151.973 124.043 152.184C123.629 152.387 123.273 152.691 122.977 153.098C122.68 153.504 122.449 154 122.285 154.586C122.121 155.172 122.039 155.848 122.039 156.613V157.105C122.039 157.707 122.121 158.273 122.285 158.805C122.457 159.328 122.703 159.789 123.023 160.188C123.352 160.586 123.746 160.898 124.207 161.125C124.676 161.352 125.207 161.465 125.801 161.465C126.566 161.465 127.215 161.309 127.746 160.996C128.277 160.684 128.742 160.266 129.141 159.742L130.453 160.785C130.18 161.199 129.832 161.594 129.41 161.969C128.988 162.344 128.469 162.648 127.852 162.883C127.242 163.117 126.52 163.234 125.684 163.234ZM135.316 152.312V163H133.148V150.32H135.258L135.316 152.312ZM139.277 150.25L139.266 152.266C139.086 152.227 138.914 152.203 138.75 152.195C138.594 152.18 138.414 152.172 138.211 152.172C137.711 152.172 137.27 152.25 136.887 152.406C136.504 152.562 136.18 152.781 135.914 153.062C135.648 153.344 135.438 153.68 135.281 154.07C135.133 154.453 135.035 154.875 134.988 155.336L134.379 155.688C134.379 154.922 134.453 154.203 134.602 153.531C134.758 152.859 134.996 152.266 135.316 151.75C135.637 151.227 136.043 150.82 136.535 150.531C137.035 150.234 137.629 150.086 138.316 150.086C138.473 150.086 138.652 150.105 138.855 150.145C139.059 150.176 139.199 150.211 139.277 150.25ZM147.562 145.938H153.211C154.492 145.938 155.574 146.133 156.457 146.523C157.348 146.914 158.023 147.492 158.484 148.258C158.953 149.016 159.188 149.949 159.188 151.059C159.188 151.84 159.027 152.555 158.707 153.203C158.395 153.844 157.941 154.391 157.348 154.844C156.762 155.289 156.059 155.621 155.238 155.84L154.605 156.086H149.297L149.273 154.246H153.281C154.094 154.246 154.77 154.105 155.309 153.824C155.848 153.535 156.254 153.148 156.527 152.664C156.801 152.18 156.938 151.645 156.938 151.059C156.938 150.402 156.809 149.828 156.551 149.336C156.293 148.844 155.887 148.465 155.332 148.199C154.785 147.926 154.078 147.789 153.211 147.789H149.824V163H147.562V145.938ZM157.535 163L153.387 155.266L155.742 155.254L159.949 162.859V163H157.535ZM169.5 160.832V154.305C169.5 153.805 169.398 153.371 169.195 153.004C169 152.629 168.703 152.34 168.305 152.137C167.906 151.934 167.414 151.832 166.828 151.832C166.281 151.832 165.801 151.926 165.387 152.113C164.98 152.301 164.66 152.547 164.426 152.852C164.199 153.156 164.086 153.484 164.086 153.836H161.918C161.918 153.383 162.035 152.934 162.27 152.488C162.504 152.043 162.84 151.641 163.277 151.281C163.723 150.914 164.254 150.625 164.871 150.414C165.496 150.195 166.191 150.086 166.957 150.086C167.879 150.086 168.691 150.242 169.395 150.555C170.105 150.867 170.66 151.34 171.059 151.973C171.465 152.598 171.668 153.383 171.668 154.328V160.234C171.668 160.656 171.703 161.105 171.773 161.582C171.852 162.059 171.965 162.469 172.113 162.812V163H169.852C169.742 162.75 169.656 162.418 169.594 162.004C169.531 161.582 169.5 161.191 169.5 160.832ZM169.875 155.312L169.898 156.836H167.707C167.09 156.836 166.539 156.887 166.055 156.988C165.57 157.082 165.164 157.227 164.836 157.422C164.508 157.617 164.258 157.863 164.086 158.16C163.914 158.449 163.828 158.789 163.828 159.18C163.828 159.578 163.918 159.941 164.098 160.27C164.277 160.598 164.547 160.859 164.906 161.055C165.273 161.242 165.723 161.336 166.254 161.336C166.918 161.336 167.504 161.195 168.012 160.914C168.52 160.633 168.922 160.289 169.219 159.883C169.523 159.477 169.688 159.082 169.711 158.699L170.637 159.742C170.582 160.07 170.434 160.434 170.191 160.832C169.949 161.23 169.625 161.613 169.219 161.98C168.82 162.34 168.344 162.641 167.789 162.883C167.242 163.117 166.625 163.234 165.938 163.234C165.078 163.234 164.324 163.066 163.676 162.73C163.035 162.395 162.535 161.945 162.176 161.383C161.824 160.812 161.648 160.176 161.648 159.473C161.648 158.793 161.781 158.195 162.047 157.68C162.312 157.156 162.695 156.723 163.195 156.379C163.695 156.027 164.297 155.762 165 155.582C165.703 155.402 166.488 155.312 167.355 155.312H169.875ZM180.387 150.32V151.984H173.531V150.32H180.387ZM175.852 147.238H178.02V159.859C178.02 160.289 178.086 160.613 178.219 160.832C178.352 161.051 178.523 161.195 178.734 161.266C178.945 161.336 179.172 161.371 179.414 161.371C179.594 161.371 179.781 161.355 179.977 161.324C180.18 161.285 180.332 161.254 180.434 161.23L180.445 163C180.273 163.055 180.047 163.105 179.766 163.152C179.492 163.207 179.16 163.234 178.77 163.234C178.238 163.234 177.75 163.129 177.305 162.918C176.859 162.707 176.504 162.355 176.238 161.863C175.98 161.363 175.852 160.691 175.852 159.848V147.238ZM185.285 150.32V163H183.105V150.32H185.285ZM182.941 146.957C182.941 146.605 183.047 146.309 183.258 146.066C183.477 145.824 183.797 145.703 184.219 145.703C184.633 145.703 184.949 145.824 185.168 146.066C185.395 146.309 185.508 146.605 185.508 146.957C185.508 147.293 185.395 147.582 185.168 147.824C184.949 148.059 184.633 148.176 184.219 148.176C183.797 148.176 183.477 148.059 183.258 147.824C183.047 147.582 182.941 147.293 182.941 146.957ZM190.934 153.027V163H188.766V150.32H190.816L190.934 153.027ZM190.418 156.18L189.516 156.145C189.523 155.277 189.652 154.477 189.902 153.742C190.152 153 190.504 152.355 190.957 151.809C191.41 151.262 191.949 150.84 192.574 150.543C193.207 150.238 193.906 150.086 194.672 150.086C195.297 150.086 195.859 150.172 196.359 150.344C196.859 150.508 197.285 150.773 197.637 151.141C197.996 151.508 198.27 151.984 198.457 152.57C198.645 153.148 198.738 153.855 198.738 154.691V163H196.559V154.668C196.559 154.004 196.461 153.473 196.266 153.074C196.07 152.668 195.785 152.375 195.41 152.195C195.035 152.008 194.574 151.914 194.027 151.914C193.488 151.914 192.996 152.027 192.551 152.254C192.113 152.48 191.734 152.793 191.414 153.191C191.102 153.59 190.855 154.047 190.676 154.562C190.504 155.07 190.418 155.609 190.418 156.18ZM210.246 150.32H212.215V162.73C212.215 163.848 211.988 164.801 211.535 165.59C211.082 166.379 210.449 166.977 209.637 167.383C208.832 167.797 207.902 168.004 206.848 168.004C206.41 168.004 205.895 167.934 205.301 167.793C204.715 167.66 204.137 167.43 203.566 167.102C203.004 166.781 202.531 166.348 202.148 165.801L203.285 164.512C203.816 165.152 204.371 165.598 204.949 165.848C205.535 166.098 206.113 166.223 206.684 166.223C207.371 166.223 207.965 166.094 208.465 165.836C208.965 165.578 209.352 165.195 209.625 164.688C209.906 164.188 210.047 163.57 210.047 162.836V153.109L210.246 150.32ZM201.516 156.801V156.555C201.516 155.586 201.629 154.707 201.855 153.918C202.09 153.121 202.422 152.438 202.852 151.867C203.289 151.297 203.816 150.859 204.434 150.555C205.051 150.242 205.746 150.086 206.52 150.086C207.316 150.086 208.012 150.227 208.605 150.508C209.207 150.781 209.715 151.184 210.129 151.715C210.551 152.238 210.883 152.871 211.125 153.613C211.367 154.355 211.535 155.195 211.629 156.133V157.211C211.543 158.141 211.375 158.977 211.125 159.719C210.883 160.461 210.551 161.094 210.129 161.617C209.715 162.141 209.207 162.543 208.605 162.824C208.004 163.098 207.301 163.234 206.496 163.234C205.738 163.234 205.051 163.074 204.434 162.754C203.824 162.434 203.301 161.984 202.863 161.406C202.426 160.828 202.09 160.148 201.855 159.367C201.629 158.578 201.516 157.723 201.516 156.801ZM203.684 156.555V156.801C203.684 157.434 203.746 158.027 203.871 158.582C204.004 159.137 204.203 159.625 204.469 160.047C204.742 160.469 205.09 160.801 205.512 161.043C205.934 161.277 206.438 161.395 207.023 161.395C207.742 161.395 208.336 161.242 208.805 160.938C209.273 160.633 209.645 160.23 209.918 159.73C210.199 159.23 210.418 158.688 210.574 158.102V155.277C210.488 154.848 210.355 154.434 210.176 154.035C210.004 153.629 209.777 153.27 209.496 152.957C209.223 152.637 208.883 152.383 208.477 152.195C208.07 152.008 207.594 151.914 207.047 151.914C206.453 151.914 205.941 152.039 205.512 152.289C205.09 152.531 204.742 152.867 204.469 153.297C204.203 153.719 204.004 154.211 203.871 154.773C203.746 155.328 203.684 155.922 203.684 156.555Z" fill="white"/>
<defs>
<linearGradient id="paint0_linear_21_181" x1="125" y1="0" x2="125" y2="250" gradientUnits="userSpaceOnUse">
<stop stop-color="#FA6000" stop-opacity="0"/>
<stop offset="1" stop-color="#FA6000"/>
</linearGradient>
</defs>
</svg>
