<svg width="250" height="250" viewBox="0 0 250 250" fill="none" xmlns="http://www.w3.org/2000/svg">
<rect width="250" height="250" fill="url(#paint0_linear_21_193)"/>
<path d="M92.145 102.592V88.408C92.145 87.992 92.161 87.536 92.193 87.04C92.225 86.544 92.273 86.04 92.337 85.528L79.809 102.592H92.145ZM101.097 102.592V105.04C101.097 105.296 101.017 105.512 100.857 105.688C100.713 105.864 100.481 105.952 100.161 105.952H95.889V115H92.145V105.952H76.881C76.561 105.952 76.281 105.864 76.041 105.688C75.817 105.496 75.673 105.264 75.609 104.992L75.177 102.808L91.905 80.608H95.889V102.592H101.097ZM111.493 95.68H113.245C113.853 95.68 114.341 95.608 114.709 95.464C115.077 95.304 115.413 95.04 115.717 94.672L127.165 81.712C127.485 81.296 127.821 81.008 128.173 80.848C128.525 80.688 128.957 80.608 129.469 80.608H133.405L120.301 95.416C119.981 95.8 119.669 96.12 119.365 96.376C119.077 96.616 118.765 96.816 118.429 96.976C118.861 97.12 119.253 97.336 119.605 97.624C119.957 97.896 120.301 98.256 120.637 98.704L134.317 115H130.285C129.981 115 129.717 114.984 129.493 114.952C129.285 114.904 129.101 114.84 128.941 114.76C128.781 114.664 128.637 114.56 128.509 114.448C128.397 114.32 128.285 114.176 128.173 114.016L116.317 100.36C115.997 99.96 115.653 99.68 115.285 99.52C114.917 99.344 114.357 99.256 113.605 99.256H111.493V115H106.861V80.608H111.493V95.68ZM171.971 100.504H162.179V110.824H158.699V100.504H148.955V97.264H158.699V87.016H162.179V97.264H171.971V100.504Z" fill="#303030"/>
<path d="M48.2227 153.273V155.113H38.9883V153.273H48.2227ZM39.3398 145.938V163H37.0781V145.938H39.3398ZM50.1914 145.938V163H47.9414V145.938H50.1914ZM61.3594 160.832V154.305C61.3594 153.805 61.2578 153.371 61.0547 153.004C60.8594 152.629 60.5625 152.34 60.1641 152.137C59.7656 151.934 59.2734 151.832 58.6875 151.832C58.1406 151.832 57.6602 151.926 57.2461 152.113C56.8398 152.301 56.5195 152.547 56.2852 152.852C56.0586 153.156 55.9453 153.484 55.9453 153.836H53.7773C53.7773 153.383 53.8945 152.934 54.1289 152.488C54.3633 152.043 54.6992 151.641 55.1367 151.281C55.582 150.914 56.1133 150.625 56.7305 150.414C57.3555 150.195 58.0508 150.086 58.8164 150.086C59.7383 150.086 60.5508 150.242 61.2539 150.555C61.9648 150.867 62.5195 151.34 62.918 151.973C63.3242 152.598 63.5273 153.383 63.5273 154.328V160.234C63.5273 160.656 63.5625 161.105 63.6328 161.582C63.7109 162.059 63.8242 162.469 63.9727 162.812V163H61.7109C61.6016 162.75 61.5156 162.418 61.4531 162.004C61.3906 161.582 61.3594 161.191 61.3594 160.832ZM61.7344 155.312L61.7578 156.836H59.5664C58.9492 156.836 58.3984 156.887 57.9141 156.988C57.4297 157.082 57.0234 157.227 56.6953 157.422C56.3672 157.617 56.1172 157.863 55.9453 158.16C55.7734 158.449 55.6875 158.789 55.6875 159.18C55.6875 159.578 55.7773 159.941 55.957 160.27C56.1367 160.598 56.4062 160.859 56.7656 161.055C57.1328 161.242 57.582 161.336 58.1133 161.336C58.7773 161.336 59.3633 161.195 59.8711 160.914C60.3789 160.633 60.7812 160.289 61.0781 159.883C61.3828 159.477 61.5469 159.082 61.5703 158.699L62.4961 159.742C62.4414 160.07 62.293 160.434 62.0508 160.832C61.8086 161.23 61.4844 161.613 61.0781 161.98C60.6797 162.34 60.2031 162.641 59.6484 162.883C59.1016 163.117 58.4844 163.234 57.7969 163.234C56.9375 163.234 56.1836 163.066 55.5352 162.73C54.8945 162.395 54.3945 161.945 54.0352 161.383C53.6836 160.812 53.5078 160.176 53.5078 159.473C53.5078 158.793 53.6406 158.195 53.9062 157.68C54.1719 157.156 54.5547 156.723 55.0547 156.379C55.5547 156.027 56.1562 155.762 56.8594 155.582C57.5625 155.402 58.3477 155.312 59.2148 155.312H61.7344ZM69.1055 152.758V167.875H66.9258V150.32H68.918L69.1055 152.758ZM77.6484 156.555V156.801C77.6484 157.723 77.5391 158.578 77.3203 159.367C77.1016 160.148 76.7812 160.828 76.3594 161.406C75.9453 161.984 75.4336 162.434 74.8242 162.754C74.2148 163.074 73.5156 163.234 72.7266 163.234C71.9219 163.234 71.2109 163.102 70.5938 162.836C69.9766 162.57 69.4531 162.184 69.0234 161.676C68.5938 161.168 68.25 160.559 67.9922 159.848C67.7422 159.137 67.5703 158.336 67.4766 157.445V156.133C67.5703 155.195 67.7461 154.355 68.0039 153.613C68.2617 152.871 68.6016 152.238 69.0234 151.715C69.4531 151.184 69.9727 150.781 70.582 150.508C71.1914 150.227 71.8945 150.086 72.6914 150.086C73.4883 150.086 74.1953 150.242 74.8125 150.555C75.4297 150.859 75.9492 151.297 76.3711 151.867C76.793 152.438 77.1094 153.121 77.3203 153.918C77.5391 154.707 77.6484 155.586 77.6484 156.555ZM75.4688 156.801V156.555C75.4688 155.922 75.4023 155.328 75.2695 154.773C75.1367 154.211 74.9297 153.719 74.6484 153.297C74.375 152.867 74.0234 152.531 73.5938 152.289C73.1641 152.039 72.6523 151.914 72.0586 151.914C71.5117 151.914 71.0352 152.008 70.6289 152.195C70.2305 152.383 69.8906 152.637 69.6094 152.957C69.3281 153.27 69.0977 153.629 68.918 154.035C68.7461 154.434 68.6172 154.848 68.5312 155.277V158.312C68.6875 158.859 68.9062 159.375 69.1875 159.859C69.4688 160.336 69.8438 160.723 70.3125 161.02C70.7812 161.309 71.3711 161.453 72.082 161.453C72.668 161.453 73.1719 161.332 73.5938 161.09C74.0234 160.84 74.375 160.5 74.6484 160.07C74.9297 159.641 75.1367 159.148 75.2695 158.594C75.4023 158.031 75.4688 157.434 75.4688 156.801ZM82.582 152.758V167.875H80.4023V150.32H82.3945L82.582 152.758ZM91.125 156.555V156.801C91.125 157.723 91.0156 158.578 90.7969 159.367C90.5781 160.148 90.2578 160.828 89.8359 161.406C89.4219 161.984 88.9102 162.434 88.3008 162.754C87.6914 163.074 86.9922 163.234 86.2031 163.234C85.3984 163.234 84.6875 163.102 84.0703 162.836C83.4531 162.57 82.9297 162.184 82.5 161.676C82.0703 161.168 81.7266 160.559 81.4688 159.848C81.2188 159.137 81.0469 158.336 80.9531 157.445V156.133C81.0469 155.195 81.2227 154.355 81.4805 153.613C81.7383 152.871 82.0781 152.238 82.5 151.715C82.9297 151.184 83.4492 150.781 84.0586 150.508C84.668 150.227 85.3711 150.086 86.168 150.086C86.9648 150.086 87.6719 150.242 88.2891 150.555C88.9062 150.859 89.4258 151.297 89.8477 151.867C90.2695 152.438 90.5859 153.121 90.7969 153.918C91.0156 154.707 91.125 155.586 91.125 156.555ZM88.9453 156.801V156.555C88.9453 155.922 88.8789 155.328 88.7461 154.773C88.6133 154.211 88.4062 153.719 88.125 153.297C87.8516 152.867 87.5 152.531 87.0703 152.289C86.6406 152.039 86.1289 151.914 85.5352 151.914C84.9883 151.914 84.5117 152.008 84.1055 152.195C83.707 152.383 83.3672 152.637 83.0859 152.957C82.8047 153.27 82.5742 153.629 82.3945 154.035C82.2227 154.434 82.0938 154.848 82.0078 155.277V158.312C82.1641 158.859 82.3828 159.375 82.6641 159.859C82.9453 160.336 83.3203 160.723 83.7891 161.02C84.2578 161.309 84.8477 161.453 85.5586 161.453C86.1445 161.453 86.6484 161.332 87.0703 161.09C87.5 160.84 87.8516 160.5 88.125 160.07C88.4062 159.641 88.6133 159.148 88.7461 158.594C88.8789 158.031 88.9453 157.434 88.9453 156.801ZM97.3125 161.688L100.84 150.32H103.16L98.0742 164.957C97.957 165.27 97.8008 165.605 97.6055 165.965C97.418 166.332 97.1758 166.68 96.8789 167.008C96.582 167.336 96.2227 167.602 95.8008 167.805C95.3867 168.016 94.8906 168.121 94.3125 168.121C94.1406 168.121 93.9219 168.098 93.6562 168.051C93.3906 168.004 93.2031 167.965 93.0938 167.934L93.082 166.176C93.1445 166.184 93.2422 166.191 93.375 166.199C93.5156 166.215 93.6133 166.223 93.668 166.223C94.1602 166.223 94.5781 166.156 94.9219 166.023C95.2656 165.898 95.5547 165.684 95.7891 165.379C96.0312 165.082 96.2383 164.672 96.4102 164.148L97.3125 161.688ZM94.7227 150.32L98.0156 160.164L98.5781 162.449L97.0195 163.246L92.3555 150.32H94.7227ZM121.699 157.574H123.949C123.832 158.652 123.523 159.617 123.023 160.469C122.523 161.32 121.816 161.996 120.902 162.496C119.988 162.988 118.848 163.234 117.48 163.234C116.48 163.234 115.57 163.047 114.75 162.672C113.938 162.297 113.238 161.766 112.652 161.078C112.066 160.383 111.613 159.551 111.293 158.582C110.98 157.605 110.824 156.52 110.824 155.324V153.625C110.824 152.43 110.98 151.348 111.293 150.379C111.613 149.402 112.07 148.566 112.664 147.871C113.266 147.176 113.988 146.641 114.832 146.266C115.676 145.891 116.625 145.703 117.68 145.703C118.969 145.703 120.059 145.945 120.949 146.43C121.84 146.914 122.531 147.586 123.023 148.445C123.523 149.297 123.832 150.285 123.949 151.41H121.699C121.59 150.613 121.387 149.93 121.09 149.359C120.793 148.781 120.371 148.336 119.824 148.023C119.277 147.711 118.562 147.555 117.68 147.555C116.922 147.555 116.254 147.699 115.676 147.988C115.105 148.277 114.625 148.688 114.234 149.219C113.852 149.75 113.562 150.387 113.367 151.129C113.172 151.871 113.074 152.695 113.074 153.602V155.324C113.074 156.16 113.16 156.945 113.332 157.68C113.512 158.414 113.781 159.059 114.141 159.613C114.5 160.168 114.957 160.605 115.512 160.926C116.066 161.238 116.723 161.395 117.48 161.395C118.441 161.395 119.207 161.242 119.777 160.938C120.348 160.633 120.777 160.195 121.066 159.625C121.363 159.055 121.574 158.371 121.699 157.574ZM134.461 160.07V150.32H136.641V163H134.566L134.461 160.07ZM134.871 157.398L135.773 157.375C135.773 158.219 135.684 159 135.504 159.719C135.332 160.43 135.051 161.047 134.66 161.57C134.27 162.094 133.758 162.504 133.125 162.801C132.492 163.09 131.723 163.234 130.816 163.234C130.199 163.234 129.633 163.145 129.117 162.965C128.609 162.785 128.172 162.508 127.805 162.133C127.438 161.758 127.152 161.27 126.949 160.668C126.754 160.066 126.656 159.344 126.656 158.5V150.32H128.824V158.523C128.824 159.094 128.887 159.566 129.012 159.941C129.145 160.309 129.32 160.602 129.539 160.82C129.766 161.031 130.016 161.18 130.289 161.266C130.57 161.352 130.859 161.395 131.156 161.395C132.078 161.395 132.809 161.219 133.348 160.867C133.887 160.508 134.273 160.027 134.508 159.426C134.75 158.816 134.871 158.141 134.871 157.398ZM147.328 159.637C147.328 159.324 147.258 159.035 147.117 158.77C146.984 158.496 146.707 158.25 146.285 158.031C145.871 157.805 145.246 157.609 144.41 157.445C143.707 157.297 143.07 157.121 142.5 156.918C141.938 156.715 141.457 156.469 141.059 156.18C140.668 155.891 140.367 155.551 140.156 155.16C139.945 154.77 139.84 154.312 139.84 153.789C139.84 153.289 139.949 152.816 140.168 152.371C140.395 151.926 140.711 151.531 141.117 151.188C141.531 150.844 142.027 150.574 142.605 150.379C143.184 150.184 143.828 150.086 144.539 150.086C145.555 150.086 146.422 150.266 147.141 150.625C147.859 150.984 148.41 151.465 148.793 152.066C149.176 152.66 149.367 153.32 149.367 154.047H147.199C147.199 153.695 147.094 153.355 146.883 153.027C146.68 152.691 146.379 152.414 145.98 152.195C145.59 151.977 145.109 151.867 144.539 151.867C143.938 151.867 143.449 151.961 143.074 152.148C142.707 152.328 142.438 152.559 142.266 152.84C142.102 153.121 142.02 153.418 142.02 153.73C142.02 153.965 142.059 154.176 142.137 154.363C142.223 154.543 142.371 154.711 142.582 154.867C142.793 155.016 143.09 155.156 143.473 155.289C143.855 155.422 144.344 155.555 144.938 155.688C145.977 155.922 146.832 156.203 147.504 156.531C148.176 156.859 148.676 157.262 149.004 157.738C149.332 158.215 149.496 158.793 149.496 159.473C149.496 160.027 149.379 160.535 149.145 160.996C148.918 161.457 148.586 161.855 148.148 162.191C147.719 162.52 147.203 162.777 146.602 162.965C146.008 163.145 145.34 163.234 144.598 163.234C143.48 163.234 142.535 163.035 141.762 162.637C140.988 162.238 140.402 161.723 140.004 161.09C139.605 160.457 139.406 159.789 139.406 159.086H141.586C141.617 159.68 141.789 160.152 142.102 160.504C142.414 160.848 142.797 161.094 143.25 161.242C143.703 161.383 144.152 161.453 144.598 161.453C145.191 161.453 145.688 161.375 146.086 161.219C146.492 161.062 146.801 160.848 147.012 160.574C147.223 160.301 147.328 159.988 147.328 159.637ZM157.652 150.32V151.984H150.797V150.32H157.652ZM153.117 147.238H155.285V159.859C155.285 160.289 155.352 160.613 155.484 160.832C155.617 161.051 155.789 161.195 156 161.266C156.211 161.336 156.438 161.371 156.68 161.371C156.859 161.371 157.047 161.355 157.242 161.324C157.445 161.285 157.598 161.254 157.699 161.23L157.711 163C157.539 163.055 157.312 163.105 157.031 163.152C156.758 163.207 156.426 163.234 156.035 163.234C155.504 163.234 155.016 163.129 154.57 162.918C154.125 162.707 153.77 162.355 153.504 161.863C153.246 161.363 153.117 160.691 153.117 159.848V147.238ZM159.387 156.801V156.531C159.387 155.617 159.52 154.77 159.785 153.988C160.051 153.199 160.434 152.516 160.934 151.938C161.434 151.352 162.039 150.898 162.75 150.578C163.461 150.25 164.258 150.086 165.141 150.086C166.031 150.086 166.832 150.25 167.543 150.578C168.262 150.898 168.871 151.352 169.371 151.938C169.879 152.516 170.266 153.199 170.531 153.988C170.797 154.77 170.93 155.617 170.93 156.531V156.801C170.93 157.715 170.797 158.562 170.531 159.344C170.266 160.125 169.879 160.809 169.371 161.395C168.871 161.973 168.266 162.426 167.555 162.754C166.852 163.074 166.055 163.234 165.164 163.234C164.273 163.234 163.473 163.074 162.762 162.754C162.051 162.426 161.441 161.973 160.934 161.395C160.434 160.809 160.051 160.125 159.785 159.344C159.52 158.562 159.387 157.715 159.387 156.801ZM161.555 156.531V156.801C161.555 157.434 161.629 158.031 161.777 158.594C161.926 159.148 162.148 159.641 162.445 160.07C162.75 160.5 163.129 160.84 163.582 161.09C164.035 161.332 164.562 161.453 165.164 161.453C165.758 161.453 166.277 161.332 166.723 161.09C167.176 160.84 167.551 160.5 167.848 160.07C168.145 159.641 168.367 159.148 168.516 158.594C168.672 158.031 168.75 157.434 168.75 156.801V156.531C168.75 155.906 168.672 155.316 168.516 154.762C168.367 154.199 168.141 153.703 167.836 153.273C167.539 152.836 167.164 152.492 166.711 152.242C166.266 151.992 165.742 151.867 165.141 151.867C164.547 151.867 164.023 151.992 163.57 152.242C163.125 152.492 162.75 152.836 162.445 153.273C162.148 153.703 161.926 154.199 161.777 154.762C161.629 155.316 161.555 155.906 161.555 156.531ZM175.805 152.84V163H173.625V150.32H175.688L175.805 152.84ZM175.359 156.18L174.352 156.145C174.359 155.277 174.473 154.477 174.691 153.742C174.91 153 175.234 152.355 175.664 151.809C176.094 151.262 176.629 150.84 177.27 150.543C177.91 150.238 178.652 150.086 179.496 150.086C180.09 150.086 180.637 150.172 181.137 150.344C181.637 150.508 182.07 150.77 182.438 151.129C182.805 151.488 183.09 151.949 183.293 152.512C183.496 153.074 183.598 153.754 183.598 154.551V163H181.43V154.656C181.43 153.992 181.316 153.461 181.09 153.062C180.871 152.664 180.559 152.375 180.152 152.195C179.746 152.008 179.27 151.914 178.723 151.914C178.082 151.914 177.547 152.027 177.117 152.254C176.688 152.48 176.344 152.793 176.086 153.191C175.828 153.59 175.641 154.047 175.523 154.562C175.414 155.07 175.359 155.609 175.359 156.18ZM183.574 154.984L182.121 155.43C182.129 154.734 182.242 154.066 182.461 153.426C182.688 152.785 183.012 152.215 183.434 151.715C183.863 151.215 184.391 150.82 185.016 150.531C185.641 150.234 186.355 150.086 187.16 150.086C187.84 150.086 188.441 150.176 188.965 150.355C189.496 150.535 189.941 150.812 190.301 151.188C190.668 151.555 190.945 152.027 191.133 152.605C191.32 153.184 191.414 153.871 191.414 154.668V163H189.234V154.645C189.234 153.934 189.121 153.383 188.895 152.992C188.676 152.594 188.363 152.316 187.957 152.16C187.559 151.996 187.082 151.914 186.527 151.914C186.051 151.914 185.629 151.996 185.262 152.16C184.895 152.324 184.586 152.551 184.336 152.84C184.086 153.121 183.895 153.445 183.762 153.812C183.637 154.18 183.574 154.57 183.574 154.984ZM199.957 163.234C199.074 163.234 198.273 163.086 197.555 162.789C196.844 162.484 196.23 162.059 195.715 161.512C195.207 160.965 194.816 160.316 194.543 159.566C194.27 158.816 194.133 157.996 194.133 157.105V156.613C194.133 155.582 194.285 154.664 194.59 153.859C194.895 153.047 195.309 152.359 195.832 151.797C196.355 151.234 196.949 150.809 197.613 150.52C198.277 150.23 198.965 150.086 199.676 150.086C200.582 150.086 201.363 150.242 202.02 150.555C202.684 150.867 203.227 151.305 203.648 151.867C204.07 152.422 204.383 153.078 204.586 153.836C204.789 154.586 204.891 155.406 204.891 156.297V157.27H195.422V155.5H202.723V155.336C202.691 154.773 202.574 154.227 202.371 153.695C202.176 153.164 201.863 152.727 201.434 152.383C201.004 152.039 200.418 151.867 199.676 151.867C199.184 151.867 198.73 151.973 198.316 152.184C197.902 152.387 197.547 152.691 197.25 153.098C196.953 153.504 196.723 154 196.559 154.586C196.395 155.172 196.312 155.848 196.312 156.613V157.105C196.312 157.707 196.395 158.273 196.559 158.805C196.73 159.328 196.977 159.789 197.297 160.188C197.625 160.586 198.02 160.898 198.48 161.125C198.949 161.352 199.48 161.465 200.074 161.465C200.84 161.465 201.488 161.309 202.02 160.996C202.551 160.684 203.016 160.266 203.414 159.742L204.727 160.785C204.453 161.199 204.105 161.594 203.684 161.969C203.262 162.344 202.742 162.648 202.125 162.883C201.516 163.117 200.793 163.234 199.957 163.234ZM209.59 152.312V163H207.422V150.32H209.531L209.59 152.312ZM213.551 150.25L213.539 152.266C213.359 152.227 213.188 152.203 213.023 152.195C212.867 152.18 212.688 152.172 212.484 152.172C211.984 152.172 211.543 152.25 211.16 152.406C210.777 152.562 210.453 152.781 210.188 153.062C209.922 153.344 209.711 153.68 209.555 154.07C209.406 154.453 209.309 154.875 209.262 155.336L208.652 155.688C208.652 154.922 208.727 154.203 208.875 153.531C209.031 152.859 209.27 152.266 209.59 151.75C209.91 151.227 210.316 150.82 210.809 150.531C211.309 150.234 211.902 150.086 212.59 150.086C212.746 150.086 212.926 150.105 213.129 150.145C213.332 150.176 213.473 150.211 213.551 150.25Z" fill="white"/>
<defs>
<linearGradient id="paint0_linear_21_193" x1="125" y1="0" x2="125" y2="250" gradientUnits="userSpaceOnUse">
<stop stop-color="#FA6000" stop-opacity="0"/>
<stop offset="1" stop-color="#FB751E"/>
</linearGradient>
</defs>
</svg>
